<mxfile host="app.diagrams.net" agent="Mozilla/5.0 (Windows NT 10.0; Win64; x64) AppleWebKit/537.36 (KHTML, like Gecko) Chrome/126.0.0.0 YaBrowser/24.7.0.0 Safari/537.36" version="24.7.16" pages="2">
  <diagram name="Страница — 1" id="xMBfA3eAwyeIgMIUkxuP">
    <mxGraphModel grid="1" page="1" gridSize="10" guides="1" tooltips="1" connect="1" arrows="1" fold="1" pageScale="1" pageWidth="827" pageHeight="1169" math="0" shadow="0">
      <root>
        <mxCell id="0" />
        <mxCell id="1" parent="0" />
        <mxCell id="wpq3NvoztluDvb17i84A-1" value="Пользователь" style="shape=umlActor;verticalLabelPosition=bottom;verticalAlign=top;html=1;outlineConnect=0;rounded=0;labelBackgroundColor=none;fillColor=#F2CC8F;strokeColor=#E07A5F;fontColor=#393C56;" vertex="1" parent="1">
          <mxGeometry x="410" y="230" width="30" height="60" as="geometry" />
        </mxCell>
        <mxCell id="wpq3NvoztluDvb17i84A-2" value="" style="endArrow=none;html=1;rounded=0;labelBackgroundColor=none;strokeColor=#E07A5F;fontColor=default;" edge="1" parent="1" target="wpq3NvoztluDvb17i84A-3">
          <mxGeometry width="50" height="50" relative="1" as="geometry">
            <mxPoint x="400" y="280" as="sourcePoint" />
            <mxPoint x="400" y="300" as="targetPoint" />
          </mxGeometry>
        </mxCell>
        <mxCell id="wpq3NvoztluDvb17i84A-8" value="" style="endArrow=none;html=1;rounded=0;labelBackgroundColor=none;strokeColor=#E07A5F;fontColor=default;" edge="1" parent="1" target="wpq3NvoztluDvb17i84A-9">
          <mxGeometry width="50" height="50" relative="1" as="geometry">
            <mxPoint x="450" y="260" as="sourcePoint" />
            <mxPoint x="490" y="200" as="targetPoint" />
          </mxGeometry>
        </mxCell>
        <mxCell id="wpq3NvoztluDvb17i84A-11" value="" style="endArrow=none;html=1;rounded=0;labelBackgroundColor=none;strokeColor=#E07A5F;fontColor=default;" edge="1" parent="1" target="wpq3NvoztluDvb17i84A-12">
          <mxGeometry width="50" height="50" relative="1" as="geometry">
            <mxPoint x="400" y="260" as="sourcePoint" />
            <mxPoint x="350" y="180" as="targetPoint" />
          </mxGeometry>
        </mxCell>
        <mxCell id="wpq3NvoztluDvb17i84A-14" value="" style="endArrow=none;html=1;rounded=0;labelBackgroundColor=none;strokeColor=#E07A5F;fontColor=default;" edge="1" parent="1" target="wpq3NvoztluDvb17i84A-15">
          <mxGeometry width="50" height="50" relative="1" as="geometry">
            <mxPoint x="450" y="280" as="sourcePoint" />
            <mxPoint x="530" y="260" as="targetPoint" />
          </mxGeometry>
        </mxCell>
        <mxCell id="wpq3NvoztluDvb17i84A-17" value="" style="group;rounded=0;labelBackgroundColor=none;fontColor=#393C56;" connectable="0" vertex="1" parent="1">
          <mxGeometry x="220" y="180" width="120" height="80" as="geometry" />
        </mxCell>
        <mxCell id="wpq3NvoztluDvb17i84A-12" value="" style="ellipse;whiteSpace=wrap;html=1;rounded=0;labelBackgroundColor=none;fillColor=#F2CC8F;strokeColor=#E07A5F;fontColor=#393C56;" vertex="1" parent="wpq3NvoztluDvb17i84A-17">
          <mxGeometry width="120" height="80" as="geometry" />
        </mxCell>
        <mxCell id="wpq3NvoztluDvb17i84A-13" value="Совместное редактирование" style="text;html=1;align=center;verticalAlign=middle;whiteSpace=wrap;rounded=0;labelBackgroundColor=none;fontColor=#393C56;" vertex="1" parent="wpq3NvoztluDvb17i84A-17">
          <mxGeometry x="30" y="25" width="60" height="30" as="geometry" />
        </mxCell>
        <mxCell id="wpq3NvoztluDvb17i84A-18" value="" style="group;rounded=0;labelBackgroundColor=none;fontColor=#393C56;" connectable="0" vertex="1" parent="1">
          <mxGeometry x="230" y="280" width="120" height="80" as="geometry" />
        </mxCell>
        <mxCell id="wpq3NvoztluDvb17i84A-3" value="" style="ellipse;whiteSpace=wrap;html=1;rounded=0;labelBackgroundColor=none;fillColor=#F2CC8F;strokeColor=#E07A5F;fontColor=#393C56;" vertex="1" parent="wpq3NvoztluDvb17i84A-18">
          <mxGeometry width="120" height="80" as="geometry" />
        </mxCell>
        <mxCell id="wpq3NvoztluDvb17i84A-4" value="Авторизация" style="text;html=1;align=center;verticalAlign=middle;whiteSpace=wrap;rounded=0;labelBackgroundColor=none;fontColor=#393C56;" vertex="1" parent="wpq3NvoztluDvb17i84A-18">
          <mxGeometry x="30" y="25" width="60" height="30" as="geometry" />
        </mxCell>
        <mxCell id="wpq3NvoztluDvb17i84A-19" value="" style="group;rounded=0;labelBackgroundColor=none;fontColor=#393C56;" connectable="0" vertex="1" parent="1">
          <mxGeometry x="440" y="360" width="120" height="80" as="geometry" />
        </mxCell>
        <mxCell id="wpq3NvoztluDvb17i84A-6" value="" style="ellipse;whiteSpace=wrap;html=1;rounded=0;labelBackgroundColor=none;fillColor=#F2CC8F;strokeColor=#E07A5F;fontColor=#393C56;" vertex="1" parent="wpq3NvoztluDvb17i84A-19">
          <mxGeometry width="120" height="80" as="geometry" />
        </mxCell>
        <mxCell id="wpq3NvoztluDvb17i84A-7" value="Загрузка/создание документа" style="text;html=1;align=center;verticalAlign=middle;whiteSpace=wrap;rounded=0;labelBackgroundColor=none;fontColor=#393C56;" vertex="1" parent="wpq3NvoztluDvb17i84A-19">
          <mxGeometry x="30" y="25" width="60" height="30" as="geometry" />
        </mxCell>
        <mxCell id="wpq3NvoztluDvb17i84A-20" value="" style="group;rounded=0;labelBackgroundColor=none;fontColor=#393C56;" connectable="0" vertex="1" parent="1">
          <mxGeometry x="500" y="280" width="120" height="80" as="geometry" />
        </mxCell>
        <mxCell id="wpq3NvoztluDvb17i84A-15" value="" style="ellipse;whiteSpace=wrap;html=1;rounded=0;labelBackgroundColor=none;fillColor=#F2CC8F;strokeColor=#E07A5F;fontColor=#393C56;" vertex="1" parent="wpq3NvoztluDvb17i84A-20">
          <mxGeometry width="120" height="80" as="geometry" />
        </mxCell>
        <mxCell id="wpq3NvoztluDvb17i84A-16" value="Удаление документа" style="text;html=1;align=center;verticalAlign=middle;whiteSpace=wrap;rounded=0;labelBackgroundColor=none;fontColor=#393C56;" vertex="1" parent="wpq3NvoztluDvb17i84A-20">
          <mxGeometry x="30" y="25" width="60" height="30" as="geometry" />
        </mxCell>
        <mxCell id="wpq3NvoztluDvb17i84A-21" value="" style="group;rounded=0;labelBackgroundColor=none;fontColor=#393C56;" connectable="0" vertex="1" parent="1">
          <mxGeometry x="510" y="180" width="120" height="80" as="geometry" />
        </mxCell>
        <mxCell id="wpq3NvoztluDvb17i84A-9" value="" style="ellipse;whiteSpace=wrap;html=1;rounded=0;labelBackgroundColor=none;fillColor=#F2CC8F;strokeColor=#E07A5F;fontColor=#393C56;" vertex="1" parent="wpq3NvoztluDvb17i84A-21">
          <mxGeometry width="120" height="80" as="geometry" />
        </mxCell>
        <mxCell id="wpq3NvoztluDvb17i84A-10" value="Редактирование документа" style="text;html=1;align=center;verticalAlign=middle;whiteSpace=wrap;rounded=0;labelBackgroundColor=none;fontColor=#393C56;" vertex="1" parent="wpq3NvoztluDvb17i84A-21">
          <mxGeometry x="30" y="25" width="60" height="30" as="geometry" />
        </mxCell>
        <mxCell id="BVnv53UoS0r8TIYerfws-1" value="" style="endArrow=none;html=1;rounded=0;labelBackgroundColor=none;strokeColor=#E07A5F;fontColor=default;" edge="1" parent="1" target="BVnv53UoS0r8TIYerfws-3">
          <mxGeometry width="50" height="50" relative="1" as="geometry">
            <mxPoint x="410" y="320" as="sourcePoint" />
            <mxPoint x="400" y="380" as="targetPoint" />
          </mxGeometry>
        </mxCell>
        <mxCell id="BVnv53UoS0r8TIYerfws-2" value="" style="group;rounded=0;labelBackgroundColor=none;fontColor=#393C56;" connectable="0" vertex="1" parent="1">
          <mxGeometry x="280" y="360" width="120" height="80" as="geometry" />
        </mxCell>
        <mxCell id="BVnv53UoS0r8TIYerfws-3" value="" style="ellipse;whiteSpace=wrap;html=1;rounded=0;labelBackgroundColor=none;fillColor=#F2CC8F;strokeColor=#E07A5F;fontColor=#393C56;" vertex="1" parent="BVnv53UoS0r8TIYerfws-2">
          <mxGeometry width="120" height="80" as="geometry" />
        </mxCell>
        <mxCell id="BVnv53UoS0r8TIYerfws-4" value="Выход из учетной записи" style="text;html=1;align=center;verticalAlign=middle;whiteSpace=wrap;rounded=0;labelBackgroundColor=none;fontColor=#393C56;" vertex="1" parent="BVnv53UoS0r8TIYerfws-2">
          <mxGeometry x="30" y="25" width="60" height="30" as="geometry" />
        </mxCell>
        <mxCell id="BVnv53UoS0r8TIYerfws-6" value="" style="endArrow=none;html=1;rounded=0;strokeColor=#E07A5F;fontColor=#393C56;fillColor=#F2CC8F;entryX=0.414;entryY=0.012;entryDx=0;entryDy=0;entryPerimeter=0;" edge="1" parent="1" target="wpq3NvoztluDvb17i84A-6">
          <mxGeometry width="50" height="50" relative="1" as="geometry">
            <mxPoint x="440" y="320" as="sourcePoint" />
            <mxPoint x="464" y="280" as="targetPoint" />
          </mxGeometry>
        </mxCell>
      </root>
    </mxGraphModel>
  </diagram>
  <diagram id="Y0hugGAgFbbrxYTM3zZc" name="Страница — 2">
    <mxGraphModel grid="1" page="1" gridSize="10" guides="1" tooltips="1" connect="1" arrows="1" fold="1" pageScale="1" pageWidth="827" pageHeight="1169" math="0" shadow="0">
      <root>
        <mxCell id="0" />
        <mxCell id="1" parent="0" />
        <mxCell id="2kKht8gXs7A9Z8StMhOR-1" value="" style="edgeStyle=orthogonalEdgeStyle;rounded=0;orthogonalLoop=1;jettySize=auto;html=1;strokeColor=#E07A5F;fontColor=#393C56;fillColor=#F2CC8F;" edge="1" parent="1" source="2kKht8gXs7A9Z8StMhOR-4" target="2kKht8gXs7A9Z8StMhOR-18">
          <mxGeometry relative="1" as="geometry" />
        </mxCell>
        <mxCell id="2kKht8gXs7A9Z8StMhOR-2" value="" style="edgeStyle=orthogonalEdgeStyle;rounded=0;orthogonalLoop=1;jettySize=auto;html=1;strokeColor=#E07A5F;fontColor=#393C56;fillColor=#F2CC8F;" edge="1" parent="1" source="2kKht8gXs7A9Z8StMhOR-4" target="2kKht8gXs7A9Z8StMhOR-18">
          <mxGeometry relative="1" as="geometry" />
        </mxCell>
        <mxCell id="2kKht8gXs7A9Z8StMhOR-3" value="" style="edgeStyle=orthogonalEdgeStyle;rounded=0;orthogonalLoop=1;jettySize=auto;html=1;strokeColor=#E07A5F;fontColor=#393C56;fillColor=#F2CC8F;" edge="1" parent="1" source="2kKht8gXs7A9Z8StMhOR-4" target="2kKht8gXs7A9Z8StMhOR-18">
          <mxGeometry relative="1" as="geometry" />
        </mxCell>
        <mxCell id="2kKht8gXs7A9Z8StMhOR-4" value="пользователь" style="shape=umlActor;verticalLabelPosition=bottom;verticalAlign=top;html=1;outlineConnect=0;rounded=0;labelBackgroundColor=none;fillColor=#F2CC8F;strokeColor=#E07A5F;fontColor=#393C56;" vertex="1" parent="1">
          <mxGeometry x="410" y="230" width="30" height="60" as="geometry" />
        </mxCell>
        <mxCell id="2kKht8gXs7A9Z8StMhOR-5" value="" style="endArrow=none;html=1;rounded=0;labelBackgroundColor=none;strokeColor=#E07A5F;fontColor=default;" edge="1" parent="1" target="2kKht8gXs7A9Z8StMhOR-14">
          <mxGeometry width="50" height="50" relative="1" as="geometry">
            <mxPoint x="400" y="280" as="sourcePoint" />
            <mxPoint x="400" y="300" as="targetPoint" />
          </mxGeometry>
        </mxCell>
        <mxCell id="2kKht8gXs7A9Z8StMhOR-6" value="" style="endArrow=none;html=1;rounded=0;labelBackgroundColor=none;strokeColor=#E07A5F;fontColor=default;" edge="1" parent="1" target="2kKht8gXs7A9Z8StMhOR-17">
          <mxGeometry width="50" height="50" relative="1" as="geometry">
            <mxPoint x="425" y="320" as="sourcePoint" />
            <mxPoint x="490" y="240" as="targetPoint" />
          </mxGeometry>
        </mxCell>
        <mxCell id="2kKht8gXs7A9Z8StMhOR-7" value="" style="endArrow=none;html=1;rounded=0;labelBackgroundColor=none;strokeColor=#E07A5F;fontColor=default;" edge="1" parent="1" target="2kKht8gXs7A9Z8StMhOR-23">
          <mxGeometry width="50" height="50" relative="1" as="geometry">
            <mxPoint x="450" y="260" as="sourcePoint" />
            <mxPoint x="490" y="200" as="targetPoint" />
          </mxGeometry>
        </mxCell>
        <mxCell id="2kKht8gXs7A9Z8StMhOR-8" value="" style="endArrow=none;html=1;rounded=0;labelBackgroundColor=none;strokeColor=#E07A5F;fontColor=default;" edge="1" parent="1" target="2kKht8gXs7A9Z8StMhOR-11">
          <mxGeometry width="50" height="50" relative="1" as="geometry">
            <mxPoint x="400" y="260" as="sourcePoint" />
            <mxPoint x="350" y="180" as="targetPoint" />
          </mxGeometry>
        </mxCell>
        <mxCell id="2kKht8gXs7A9Z8StMhOR-9" value="" style="endArrow=none;html=1;rounded=0;labelBackgroundColor=none;strokeColor=#E07A5F;fontColor=default;" edge="1" parent="1" target="2kKht8gXs7A9Z8StMhOR-20">
          <mxGeometry width="50" height="50" relative="1" as="geometry">
            <mxPoint x="450" y="280" as="sourcePoint" />
            <mxPoint x="530" y="260" as="targetPoint" />
          </mxGeometry>
        </mxCell>
        <mxCell id="2kKht8gXs7A9Z8StMhOR-10" value="" style="group;rounded=0;labelBackgroundColor=none;fontColor=#393C56;" connectable="0" vertex="1" parent="1">
          <mxGeometry x="220" y="180" width="120" height="80" as="geometry" />
        </mxCell>
        <mxCell id="2kKht8gXs7A9Z8StMhOR-11" value="" style="ellipse;whiteSpace=wrap;html=1;rounded=0;labelBackgroundColor=none;fillColor=#F2CC8F;strokeColor=#E07A5F;fontColor=#393C56;" vertex="1" parent="2kKht8gXs7A9Z8StMhOR-10">
          <mxGeometry width="120" height="80" as="geometry" />
        </mxCell>
        <mxCell id="2kKht8gXs7A9Z8StMhOR-12" value="Совместное редактирование" style="text;html=1;align=center;verticalAlign=middle;whiteSpace=wrap;rounded=0;labelBackgroundColor=none;fontColor=#393C56;" vertex="1" parent="2kKht8gXs7A9Z8StMhOR-10">
          <mxGeometry x="30" y="25" width="60" height="30" as="geometry" />
        </mxCell>
        <mxCell id="2kKht8gXs7A9Z8StMhOR-13" value="" style="group;rounded=0;labelBackgroundColor=none;fontColor=#393C56;" connectable="0" vertex="1" parent="1">
          <mxGeometry x="230" y="270" width="120" height="80" as="geometry" />
        </mxCell>
        <mxCell id="2kKht8gXs7A9Z8StMhOR-14" value="" style="ellipse;whiteSpace=wrap;html=1;rounded=0;labelBackgroundColor=none;fillColor=#F2CC8F;strokeColor=#E07A5F;fontColor=#393C56;" vertex="1" parent="2kKht8gXs7A9Z8StMhOR-13">
          <mxGeometry width="120" height="80" as="geometry" />
        </mxCell>
        <mxCell id="2kKht8gXs7A9Z8StMhOR-15" value="Авторизация" style="text;html=1;align=center;verticalAlign=middle;whiteSpace=wrap;rounded=0;labelBackgroundColor=none;fontColor=#393C56;" vertex="1" parent="2kKht8gXs7A9Z8StMhOR-13">
          <mxGeometry x="30" y="25" width="60" height="30" as="geometry" />
        </mxCell>
        <mxCell id="2kKht8gXs7A9Z8StMhOR-16" value="" style="group;rounded=0;labelBackgroundColor=none;fontColor=#393C56;" connectable="0" vertex="1" parent="1">
          <mxGeometry x="365" y="340" width="120" height="80" as="geometry" />
        </mxCell>
        <mxCell id="2kKht8gXs7A9Z8StMhOR-17" value="" style="ellipse;whiteSpace=wrap;html=1;rounded=0;labelBackgroundColor=none;fillColor=#F2CC8F;strokeColor=#E07A5F;fontColor=#393C56;" vertex="1" parent="2kKht8gXs7A9Z8StMhOR-16">
          <mxGeometry width="120" height="80" as="geometry" />
        </mxCell>
        <mxCell id="2kKht8gXs7A9Z8StMhOR-18" value="Загрузка документа" style="text;html=1;align=center;verticalAlign=middle;whiteSpace=wrap;rounded=0;labelBackgroundColor=none;fontColor=#393C56;" vertex="1" parent="2kKht8gXs7A9Z8StMhOR-16">
          <mxGeometry x="30" y="25" width="60" height="30" as="geometry" />
        </mxCell>
        <mxCell id="2kKht8gXs7A9Z8StMhOR-19" value="" style="group;rounded=0;labelBackgroundColor=none;fontColor=#393C56;" connectable="0" vertex="1" parent="1">
          <mxGeometry x="500" y="280" width="120" height="80" as="geometry" />
        </mxCell>
        <mxCell id="2kKht8gXs7A9Z8StMhOR-20" value="" style="ellipse;whiteSpace=wrap;html=1;rounded=0;labelBackgroundColor=none;fillColor=#F2CC8F;strokeColor=#E07A5F;fontColor=#393C56;" vertex="1" parent="2kKht8gXs7A9Z8StMhOR-19">
          <mxGeometry width="120" height="80" as="geometry" />
        </mxCell>
        <mxCell id="2kKht8gXs7A9Z8StMhOR-21" value="Удаление документа" style="text;html=1;align=center;verticalAlign=middle;whiteSpace=wrap;rounded=0;labelBackgroundColor=none;fontColor=#393C56;" vertex="1" parent="2kKht8gXs7A9Z8StMhOR-19">
          <mxGeometry x="30" y="25" width="60" height="30" as="geometry" />
        </mxCell>
        <mxCell id="2kKht8gXs7A9Z8StMhOR-22" value="" style="group;rounded=0;labelBackgroundColor=none;fontColor=#393C56;" connectable="0" vertex="1" parent="1">
          <mxGeometry x="510" y="180" width="120" height="80" as="geometry" />
        </mxCell>
        <mxCell id="2kKht8gXs7A9Z8StMhOR-23" value="" style="ellipse;whiteSpace=wrap;html=1;rounded=0;labelBackgroundColor=none;fillColor=#F2CC8F;strokeColor=#E07A5F;fontColor=#393C56;" vertex="1" parent="2kKht8gXs7A9Z8StMhOR-22">
          <mxGeometry width="120" height="80" as="geometry" />
        </mxCell>
        <mxCell id="2kKht8gXs7A9Z8StMhOR-24" value="Редактирование документа" style="text;html=1;align=center;verticalAlign=middle;whiteSpace=wrap;rounded=0;labelBackgroundColor=none;fontColor=#393C56;" vertex="1" parent="2kKht8gXs7A9Z8StMhOR-22">
          <mxGeometry x="30" y="25" width="60" height="30" as="geometry" />
        </mxCell>
      </root>
    </mxGraphModel>
  </diagram>
</mxfile>
